<svg width="16" height="16" viewBox="0 0 16 16" fill="none" xmlns="http://www.w3.org/2000/svg">
<path d="M5.16665 1.66667C5.16665 1.53406 5.11397 1.40689 5.02021 1.31312C4.92644 1.21935 4.79926 1.16667 4.66665 1.16667C4.53404 1.16667 4.40687 1.21935 4.3131 1.31312C4.21933 1.40689 4.16665 1.53406 4.16665 1.66667V2.72001C3.20665 2.79667 2.57732 2.98467 2.11465 3.44801C1.65132 3.91067 1.46332 4.54067 1.38599 5.50001H14.614C14.5367 4.54001 14.3487 3.91067 13.8853 3.44801C13.4227 2.98467 12.7927 2.79667 11.8333 2.71934V1.66667C11.8333 1.53406 11.7806 1.40689 11.6869 1.31312C11.5931 1.21935 11.4659 1.16667 11.3333 1.16667C11.2007 1.16667 11.0735 1.21935 10.9798 1.31312C10.886 1.40689 10.8333 1.53406 10.8333 1.66667V2.67534C10.39 2.66667 9.89265 2.66667 9.33332 2.66667H6.66665C6.10732 2.66667 5.60999 2.66667 5.16665 2.67534V1.66667Z" fill="black"/>
<path fill-rule="evenodd" clip-rule="evenodd" d="M1.33325 8C1.33325 7.44067 1.33325 6.94333 1.34192 6.5H14.6579C14.6666 6.94333 14.6666 7.44067 14.6666 8V9.33333C14.6666 11.8473 14.6666 13.1047 13.8853 13.8853C13.1039 14.666 11.8473 14.6667 9.33325 14.6667H6.66659C4.15259 14.6667 2.89525 14.6667 2.11459 13.8853C1.33392 13.104 1.33325 11.8473 1.33325 9.33333V8ZM11.3333 9.33333C11.5101 9.33333 11.6796 9.2631 11.8047 9.13807C11.9297 9.01305 11.9999 8.84348 11.9999 8.66667C11.9999 8.48986 11.9297 8.32029 11.8047 8.19526C11.6796 8.07024 11.5101 8 11.3333 8C11.1564 8 10.9869 8.07024 10.8618 8.19526C10.7368 8.32029 10.6666 8.48986 10.6666 8.66667C10.6666 8.84348 10.7368 9.01305 10.8618 9.13807C10.9869 9.2631 11.1564 9.33333 11.3333 9.33333ZM11.3333 12C11.5101 12 11.6796 11.9298 11.8047 11.8047C11.9297 11.6797 11.9999 11.5101 11.9999 11.3333C11.9999 11.1565 11.9297 10.987 11.8047 10.8619C11.6796 10.7369 11.5101 10.6667 11.3333 10.6667C11.1564 10.6667 10.9869 10.7369 10.8618 10.8619C10.7368 10.987 10.6666 11.1565 10.6666 11.3333C10.6666 11.5101 10.7368 11.6797 10.8618 11.8047C10.9869 11.9298 11.1564 12 11.3333 12ZM8.66659 8.66667C8.66659 8.84348 8.59635 9.01305 8.47132 9.13807C8.3463 9.2631 8.17673 9.33333 7.99992 9.33333C7.82311 9.33333 7.65354 9.2631 7.52851 9.13807C7.40349 9.01305 7.33325 8.84348 7.33325 8.66667C7.33325 8.48986 7.40349 8.32029 7.52851 8.19526C7.65354 8.07024 7.82311 8 7.99992 8C8.17673 8 8.3463 8.07024 8.47132 8.19526C8.59635 8.32029 8.66659 8.48986 8.66659 8.66667ZM8.66659 11.3333C8.66659 11.5101 8.59635 11.6797 8.47132 11.8047C8.3463 11.9298 8.17673 12 7.99992 12C7.82311 12 7.65354 11.9298 7.52851 11.8047C7.40349 11.6797 7.33325 11.5101 7.33325 11.3333C7.33325 11.1565 7.40349 10.987 7.52851 10.8619C7.65354 10.7369 7.82311 10.6667 7.99992 10.6667C8.17673 10.6667 8.3463 10.7369 8.47132 10.8619C8.59635 10.987 8.66659 11.1565 8.66659 11.3333ZM4.66659 9.33333C4.8434 9.33333 5.01297 9.2631 5.13799 9.13807C5.26301 9.01305 5.33325 8.84348 5.33325 8.66667C5.33325 8.48986 5.26301 8.32029 5.13799 8.19526C5.01297 8.07024 4.8434 8 4.66659 8C4.48977 8 4.32021 8.07024 4.19518 8.19526C4.07016 8.32029 3.99992 8.48986 3.99992 8.66667C3.99992 8.84348 4.07016 9.01305 4.19518 9.13807C4.32021 9.2631 4.48977 9.33333 4.66659 9.33333ZM4.66659 12C4.8434 12 5.01297 11.9298 5.13799 11.8047C5.26301 11.6797 5.33325 11.5101 5.33325 11.3333C5.33325 11.1565 5.26301 10.987 5.13799 10.8619C5.01297 10.7369 4.8434 10.6667 4.66659 10.6667C4.48977 10.6667 4.32021 10.7369 4.19518 10.8619C4.07016 10.987 3.99992 11.1565 3.99992 11.3333C3.99992 11.5101 4.07016 11.6797 4.19518 11.8047C4.32021 11.9298 4.48977 12 4.66659 12Z" fill="black"/>
</svg>
