<svg width="24" height="24" viewBox="0 0 24 24" fill="none" xmlns="http://www.w3.org/2000/svg">
<path d="M17 3.34C18.5083 4.21085 19.7629 5.46053 20.6398 6.9653C21.5167 8.47007 21.9854 10.1778 21.9994 11.9193C22.0135 13.6609 21.5725 15.376 20.72 16.8947C19.8676 18.4134 18.6332 19.6832 17.1392 20.5783C15.6452 21.4734 13.9434 21.9628 12.2021 21.9981C10.4608 22.0333 8.74055 21.6132 7.21155 20.7792C5.68256 19.9453 4.39787 18.7265 3.48467 17.2435C2.57146 15.7605 2.06141 14.0647 2.005 12.324L2 12L2.005 11.676C2.061 9.94899 2.56355 8.26596 3.46364 6.79099C4.36373 5.31602 5.63065 4.09945 7.14089 3.25988C8.65113 2.42031 10.3531 1.9864 12.081 2.00044C13.8089 2.01448 15.5036 2.476 17 3.34ZM12 6C11.7551 6.00003 11.5187 6.08996 11.3356 6.25271C11.1526 6.41547 11.0357 6.63975 11.007 6.883L11 7V12L11.009 12.131C11.0318 12.3045 11.0997 12.469 11.206 12.608L11.293 12.708L14.293 15.708L14.387 15.79C14.5624 15.9261 14.778 15.9999 15 15.9999C15.222 15.9999 15.4376 15.9261 15.613 15.79L15.707 15.707L15.79 15.613C15.9261 15.4376 15.9999 15.222 15.9999 15C15.9999 14.778 15.9261 14.5624 15.79 14.387L15.707 14.293L13 11.585V7L12.993 6.883C12.9643 6.63975 12.8474 6.41547 12.6644 6.25271C12.4813 6.08996 12.2449 6.00003 12 6Z" fill="#303EC9"/>
</svg>
