<svg width="16" height="17" viewBox="0 0 16 17" fill="none" xmlns="http://www.w3.org/2000/svg">
<path d="M11.7713 4.03601C9.68868 1.98735 6.31201 1.98735 4.22935 4.03601C3.73487 4.5191 3.34195 5.09617 3.07369 5.73328C2.80543 6.3704 2.66724 7.05472 2.66724 7.74601C2.66724 8.4373 2.80543 9.12162 3.07369 9.75874C3.34195 10.3959 3.73487 10.9729 4.22935 11.456L8.00001 15.166L11.7713 11.456C12.2658 10.9729 12.6587 10.3959 12.927 9.75874C13.1953 9.12162 13.3335 8.4373 13.3335 7.74601C13.3335 7.05472 13.1953 6.3704 12.927 5.73328C12.6587 5.09617 12.2658 4.5191 11.7713 4.03601ZM8.00001 9.49935C7.55468 9.49935 7.13668 9.32601 6.82135 9.01134C6.50918 8.69851 6.33386 8.27462 6.33386 7.83268C6.33386 7.39074 6.50918 6.96684 6.82135 6.65401C7.13601 6.33935 7.55468 6.16601 8.00001 6.16601C8.44535 6.16601 8.86401 6.33935 9.17868 6.65401C9.49085 6.96684 9.66616 7.39074 9.66616 7.83268C9.66616 8.27462 9.49085 8.69851 9.17868 9.01134C8.86401 9.32601 8.44535 9.49935 8.00001 9.49935Z" fill="white"/>
</svg>
