<svg width="40" height="40" viewBox="0 0 40 40" fill="none" xmlns="http://www.w3.org/2000/svg">
<path d="M20 25C22.7614 25 25 22.7614 25 20C25 17.2386 22.7614 15 20 15C17.2386 15 15 17.2386 15 20C15 22.7614 17.2386 25 20 25Z" fill="white"/>
<path d="M38.6751 19.575C37.2049 15.7721 34.6526 12.4833 31.3336 10.1151C28.0146 7.74694 24.0744 6.40322 20.0001 6.25C15.9257 6.40322 11.9856 7.74694 8.66658 10.1151C5.3476 12.4833 2.79528 15.7721 1.32508 19.575C1.22579 19.8496 1.22579 20.1504 1.32508 20.425C2.79528 24.2279 5.3476 27.5167 8.66658 29.8849C11.9856 32.2531 15.9257 33.5968 20.0001 33.75C24.0744 33.5968 28.0146 32.2531 31.3336 29.8849C34.6526 27.5167 37.2049 24.2279 38.6751 20.425C38.7744 20.1504 38.7744 19.8496 38.6751 19.575ZM20.0001 28.125C18.3931 28.125 16.8222 27.6485 15.4861 26.7557C14.1499 25.8629 13.1085 24.594 12.4936 23.1093C11.8786 21.6247 11.7177 19.991 12.0312 18.4149C12.3447 16.8388 13.1185 15.3911 14.2548 14.2548C15.3911 13.1185 16.8389 12.3446 18.415 12.0311C19.9911 11.7176 21.6247 11.8785 23.1094 12.4935C24.594 13.1084 25.863 14.1498 26.7558 15.486C27.6486 16.8221 28.1251 18.393 28.1251 20C28.1218 22.1539 27.2647 24.2186 25.7417 25.7416C24.2187 27.2646 22.1539 28.1217 20.0001 28.125Z" fill="white"/>
</svg>
