<svg width="32" height="32" viewBox="0 0 32 32" fill="none" xmlns="http://www.w3.org/2000/svg">
<rect width="32" height="32" fill="#303EC9"/>
<path d="M1.79143 24.5992L6.97648 7.40083H6.1585L1.55005 24.5992H1.79143Z" fill="white"/>
<path d="M9.40503 7.75499H12.7664V8.42847L10.0772 7.9477V14.4791H9.40503V7.75499Z" fill="white"/>
<path d="M13.9873 9.27817C13.8533 11.6994 13.5459 13.4091 13.2765 14.2259H15.6583V7.98255H14.0446L13.9873 9.27817ZM12.9691 14.2259C13.2578 13.5058 13.6032 11.7187 13.7372 8.79873L13.7852 7.74116H16.3318V14.2259H17.1V16.147H16.9553L16.1871 14.4653H13.1618L12.3929 16.147H12.2489V14.2259H12.9691Z" fill="white"/>
<path d="M18.0425 7.75499H21.4039V8.42847L18.7146 7.9477V10.8283L21.1158 10.637V11.2137L18.7146 11.021V14.2878L21.4039 13.855V14.4791H18.0425V7.75499Z" fill="white"/>
<path d="M10.0773 20.8356V23.9089H10.5581C11.855 23.9089 12.4305 23.3321 12.4305 22.3726C12.4305 21.411 11.855 20.8356 10.5581 20.8356H10.0773ZM10.0773 20.5462H10.4134C11.5176 20.5462 11.9984 20.0674 11.9984 19.1059C11.9984 18.1463 11.5176 17.6655 10.4134 17.6655H10.0773V20.5462ZM9.40515 24.149V17.4248H10.6061C12.0944 17.4248 12.7185 18.0496 12.7185 18.9612C12.7185 19.826 12.0944 20.4515 11.3262 20.5948V20.6429C12.4792 20.6909 13.1506 21.315 13.1506 22.2279C13.1506 23.3321 12.3345 24.149 10.5094 24.149H9.40515Z" fill="white"/>
<path d="M14.83 20.7869C14.83 23.1888 15.5982 23.9569 16.3183 23.9569C17.4233 23.9569 17.8073 22.3719 17.8073 22.3719L18.0467 22.4673C18.0467 22.4673 17.6626 24.245 16.2703 24.245C15.1181 24.245 14.1099 23.2354 14.1099 20.9303C14.1099 18.5778 15.3575 17.3288 16.4617 17.3288C17.4233 17.3288 17.9034 17.8096 17.9034 18.9612V19.2986H17.1832C17.1832 17.9049 16.8471 17.5689 16.3183 17.5689C15.5982 17.5689 14.83 18.337 14.83 20.7869Z" fill="white"/>
<path d="M19.006 17.4248H22.3674V18.0983L19.6781 17.6175V20.4982L22.0793 20.3068V20.8836L19.6781 20.6909V23.9576L22.3674 23.5248V24.149H19.006V17.4248Z" fill="white"/>
<path d="M29.9811 7.40083L24.796 24.5992H25.614L30.2225 7.40083H29.9811Z" fill="white"/>
</svg>
