<svg width="32" height="32" viewBox="0 0 32 32" fill="none" xmlns="http://www.w3.org/2000/svg">
<g clip-path="url(#clip0_53_2)">
<path d="M32 0H0V32H32V0Z" fill="#303EC9"/>
<path d="M1.79167 24.5992L6.97672 7.40088H6.15874L1.55029 24.5992H1.79167Z" fill="white"/>
<path d="M9.40527 7.75488H12.7666V8.42836L10.0774 7.94759V14.479H9.40527V7.75488Z" fill="white"/>
<path d="M13.9874 9.27822C13.8534 11.6995 13.546 13.4092 13.2766 14.226H15.6584V7.9826H14.0447L13.9874 9.27822ZM12.9692 14.226C13.2579 13.5059 13.6033 11.7188 13.7373 8.79878L13.7853 7.74121H16.3319V14.226H17.1001V16.1471H16.9554L16.1872 14.4654H13.1619L12.393 16.1471H12.249V14.226H12.9692Z" fill="white"/>
<path d="M18.0425 7.75488H21.4039V8.42836L18.7146 7.94759V10.8282L21.1158 10.6369V11.2136L18.7146 11.0209V14.2877L21.4039 13.8549V14.479H18.0425V7.75488Z" fill="white"/>
<path d="M10.0774 20.8356V23.9089H10.5582C11.8551 23.9089 12.4306 23.3321 12.4306 22.3726C12.4306 21.411 11.8551 20.8356 10.5582 20.8356H10.0774ZM10.0774 20.5462H10.4135C11.5177 20.5462 11.9985 20.0674 11.9985 19.1059C11.9985 18.1463 11.5177 17.6655 10.4135 17.6655H10.0774V20.5462ZM9.40527 24.149V17.4248H10.6062C12.0945 17.4248 12.7186 18.0496 12.7186 18.9612C12.7186 19.826 12.0945 20.4515 11.3263 20.5948V20.6429C12.4793 20.6909 13.1507 21.315 13.1507 22.2279C13.1507 23.3321 12.3346 24.149 10.5095 24.149H9.40527Z" fill="white"/>
<path d="M14.83 20.7867C14.83 23.1886 15.5982 23.9567 16.3183 23.9567C17.4233 23.9567 17.8073 22.3717 17.8073 22.3717L18.0467 22.4671C18.0467 22.4671 17.6626 24.2448 16.2703 24.2448C15.1181 24.2448 14.1099 23.2352 14.1099 20.9301C14.1099 18.5776 15.3575 17.3286 16.4617 17.3286C17.4233 17.3286 17.9034 17.8094 17.9034 18.961V19.2984H17.1832C17.1832 17.9047 16.8471 17.5687 16.3183 17.5687C15.5982 17.5687 14.83 18.3368 14.83 20.7867Z" fill="white"/>
<path d="M19.0059 17.4248H22.3673V18.0983L19.678 17.6175V20.4982L22.0792 20.3068V20.8836L19.678 20.6909V23.9576L22.3673 23.5248V24.149H19.0059V17.4248Z" fill="white"/>
<path d="M29.981 7.40088L24.7959 24.5992H25.6139L30.2224 7.40088H29.981Z" fill="white"/>
</g>
<defs>
<clipPath id="clip0_53_2">
<rect width="32" height="32" rx="5" fill="white"/>
</clipPath>
</defs>
</svg>
