<svg width="16" height="16" viewBox="0 0 16 16" fill="none" xmlns="http://www.w3.org/2000/svg">
<path d="M8.55467 14.534C10.6387 14.1167 13.3333 12.6173 13.3333 8.74067C13.3333 5.21334 10.7513 2.864 8.89467 1.78467C8.482 1.54467 8 1.86 8 2.33667V3.55534C8 4.51667 7.596 6.27134 6.47333 7.00134C5.9 7.374 5.28 6.81601 5.21067 6.13601L5.15333 5.57734C5.08667 4.928 4.42533 4.534 3.90667 4.93C2.974 5.64 2 6.88667 2 8.74C2 13.4807 5.526 14.6667 7.28867 14.6667C7.39178 14.6667 7.49933 14.6633 7.61133 14.6567C6.74067 14.5827 5.33333 14.0427 5.33333 12.296C5.33333 10.9293 6.33 10.006 7.08733 9.556C7.29133 9.436 7.52933 9.59267 7.52933 9.82934V10.2227C7.52933 10.5227 7.646 10.9927 7.92267 11.314C8.236 11.678 8.69533 11.2967 8.732 10.818C8.744 10.6673 8.896 10.5713 9.02667 10.6473C9.454 10.8973 10 11.4307 10 12.296C10 13.6613 9.24733 14.2893 8.55467 14.534Z" fill="black"/>
</svg>
