<svg width="24" height="24" viewBox="0 0 24 24" fill="none" xmlns="http://www.w3.org/2000/svg">
<path d="M12 1C14.3869 1 16.6761 1.94821 18.364 3.63604C20.0518 5.32387 21 7.61305 21 10C21 13.074 19.324 15.59 17.558 17.395C16.6757 18.2871 15.7129 19.0958 14.682 19.811L14.256 20.101L14.056 20.234L13.679 20.474L13.343 20.679L12.927 20.921C12.6446 21.0822 12.3251 21.1669 12 21.1669C11.6749 21.1669 11.3554 21.0822 11.073 20.921L10.657 20.679L10.137 20.359L9.945 20.234L9.535 19.961C8.42283 19.2085 7.3869 18.3491 6.442 17.395C4.676 15.589 3 13.074 3 10C3 7.61305 3.94821 5.32387 5.63604 3.63604C7.32387 1.94821 9.61305 1 12 1ZM12 7C11.606 7 11.2159 7.0776 10.8519 7.22836C10.488 7.37913 10.1573 7.6001 9.87868 7.87868C9.6001 8.15726 9.37913 8.48797 9.22836 8.85195C9.0776 9.21593 9 9.60603 9 10C9 10.394 9.0776 10.7841 9.22836 11.1481C9.37913 11.512 9.6001 11.8427 9.87868 12.1213C10.1573 12.3999 10.488 12.6209 10.8519 12.7716C11.2159 12.9224 11.606 13 12 13C12.7956 13 13.5587 12.6839 14.1213 12.1213C14.6839 11.5587 15 10.7956 15 10C15 9.20435 14.6839 8.44129 14.1213 7.87868C13.5587 7.31607 12.7956 7 12 7Z" fill="#303EC9"/>
</svg>
