<svg width="426" height="254" viewBox="0 0 426 254" fill="none" xmlns="http://www.w3.org/2000/svg">
<path d="M3.55679 253.423L79.9601 1.52588e-05H67.9069L0 253.423H3.55679Z" fill="white"/>
<path d="M115.746 5.21925H165.277V15.1432L125.65 8.05886V104.301H115.746V5.21925Z" fill="white"/>
<path d="M183.267 27.6641C181.292 63.3411 176.762 88.5341 172.792 100.571H207.89V8.57275H184.112L183.267 27.6641ZM168.263 100.571C172.517 89.9589 177.607 63.626 179.582 20.5994L180.289 5.01585H217.814V100.571H229.133V128.878H227.001L215.681 104.098H171.102L159.773 128.878H157.651V100.571H168.263Z" fill="white"/>
<path d="M243.022 5.21925H292.553V15.1432L252.926 8.05886V50.5058L288.308 47.6858V56.185L252.926 53.3454V101.481L292.553 95.1045V104.301H243.022V5.21925Z" fill="white"/>
<path d="M125.65 197.965V243.252H132.734C151.845 243.252 160.325 234.753 160.325 220.614C160.325 206.445 151.845 197.965 132.734 197.965H125.65ZM125.65 193.701H130.602C146.874 193.701 153.958 186.646 153.958 172.478C153.958 158.338 146.874 151.254 130.602 151.254H125.65V193.701ZM115.746 246.789V147.707H133.442C155.373 147.707 164.57 156.914 164.57 170.345C164.57 183.089 155.373 192.306 144.054 194.418V195.126C161.042 195.833 170.937 205.03 170.937 218.481C170.937 234.753 158.91 246.789 132.017 246.789H115.746Z" fill="white"/>
<path d="M195.684 197.248C195.684 232.64 207.003 243.959 217.615 243.959C233.896 243.959 239.556 220.604 239.556 220.604L243.083 222.009C243.083 222.009 237.423 248.204 216.907 248.204C199.929 248.204 185.072 233.328 185.072 199.361C185.072 164.696 203.456 146.292 219.727 146.292C233.896 146.292 240.97 153.376 240.97 170.345V175.317H230.359C230.359 154.782 225.407 149.829 217.615 149.829C207.003 149.829 195.684 161.149 195.684 197.248Z" fill="white"/>
<path d="M257.218 147.707H306.75V157.631L267.123 150.547V192.994L302.505 190.174V198.673L267.123 195.833V243.969L306.75 237.592V246.789H257.218V147.707Z" fill="white"/>
<path d="M418.939 0L342.535 253.423H354.589L422.496 0H418.939Z" fill="white"/>
</svg>
