<svg width="174" height="72" viewBox="0 0 174 72" fill="none" xmlns="http://www.w3.org/2000/svg">
<path d="M0.993914 71.4084L22.3441 0.59156H18.976L0 71.4084H0.993914Z" fill="white"/>
<path d="M27.7877 9.28921H41.6288V12.0624L30.5554 10.0827V36.9768H27.7877V9.28921Z" fill="white"/>
<path d="M46.6558 15.5612C46.1039 25.5309 44.8381 32.5708 43.7289 35.9343H53.5365V10.2263H46.8919L46.6558 15.5612ZM42.4631 35.9343C43.652 32.969 45.0743 25.6105 45.6261 13.5871L45.8238 9.23238H56.3097V35.9343H59.4727V43.8447H58.8769L55.7138 36.92H43.2566L40.0908 43.8447H39.4977V35.9343H42.4631Z" fill="white"/>
<path d="M63.3538 9.28921H77.1948V12.0624L66.1214 10.0827V21.9441L76.0087 21.1561V23.5312L66.1214 22.7376V36.1888L77.1948 34.4069V36.9768H63.3538V9.28921Z" fill="white"/>
<path d="M94.9629 23.7288V36.3838H96.9425C102.283 36.3838 104.652 34.0087 104.652 30.0577C104.652 26.0984 102.283 23.7288 96.9425 23.7288H94.9629ZM94.9629 22.5372H96.3467C100.894 22.5372 102.873 20.5658 102.873 16.6065C102.873 12.6554 100.894 10.6758 96.3467 10.6758H94.9629V22.5372ZM92.1952 37.3722V9.6846H97.1402C103.269 9.6846 105.839 12.2573 105.839 16.0107C105.839 19.5719 103.269 22.1473 100.106 22.7376V22.9353C104.853 23.133 107.618 25.703 107.618 29.4619C107.618 34.0087 104.257 37.3722 96.7421 37.3722H92.1952Z" fill="white"/>
<path d="M114.533 23.5284C114.533 33.4184 117.696 36.5815 120.662 36.5815C125.211 36.5815 126.793 30.0549 126.793 30.0549L127.778 30.4476C127.778 30.4476 126.197 37.7676 120.464 37.7676C115.719 37.7676 111.568 33.6106 111.568 24.1187C111.568 14.4319 116.705 9.28922 121.252 9.28922C125.211 9.28922 127.188 11.2689 127.188 16.0107V17.4H124.223C124.223 11.6615 122.839 10.2777 120.662 10.2777C117.696 10.2777 114.533 13.4407 114.533 23.5284Z" fill="white"/>
<path d="M131.728 9.6846H145.569V12.4578L134.496 10.4781V22.3395L144.383 21.5515V23.9265L134.496 23.133V36.5842L145.569 34.8022V37.3722H131.728V9.6846Z" fill="white"/>
<path d="M29.7299 50.7108V50.5108H30.3799V46.1108H29.7299V45.9108H32.0099V46.1108H31.3799V50.5108H31.9899V50.7108H29.7299ZM32.8799 50.7108V50.5108H33.4299L31.5299 48.1608V48.1108H32.1299C32.6299 46.9108 33.0299 46.3108 33.5799 45.9108H34.3299V46.8608H33.0799C33.0799 46.8608 32.7799 47.2608 32.5299 47.9608L34.5799 50.5108H35.0799V50.7108H32.8799ZM40.133 46.1108L37.933 51.4608C37.543 52.4108 37.133 52.8108 36.133 52.8108H35.883V51.8108H37.483L37.833 50.9608L35.533 46.1108H34.983V45.9108H37.333V46.1108H36.633L38.333 49.7108L39.683 46.4608L38.683 46.1108V45.9108H40.683V46.1108H40.133ZM40.3358 50.7108V49.6108H41.4858C41.4858 49.6108 41.9858 48.9608 41.9858 46.1108H41.3358V45.9108H45.4858V46.1108H44.8358V50.5108H45.4858V50.7108H43.1858V50.5108H43.8358V46.1608H42.2858C42.2858 48.5108 41.9358 49.8108 41.1358 50.7108H40.3358ZM46.2826 50.7108V50.5108H46.9326V46.1108H46.2826V45.9108H48.5826V46.1108H47.9326V47.7108H48.7326C50.2326 47.7108 50.8826 48.3608 50.8826 49.2108C50.8826 50.0608 50.2326 50.7108 48.7326 50.7108H46.2826ZM47.9326 47.9608V50.4608H48.6326C49.3326 50.4608 49.7826 50.0108 49.7826 49.2108C49.7826 48.4108 49.3326 47.9608 48.6326 47.9608H47.9326ZM52.5389 50.7108V50.5108H53.2889V46.1608H52.3889L51.6889 47.6108H51.4889V45.9108H56.0889V47.6108H55.8889L55.1889 46.1608H54.2889V50.5108H55.0389V50.7108H52.5389ZM61.6369 46.1108L59.4369 51.4608C59.0469 52.4108 58.6369 52.8108 57.6369 52.8108H57.3869V51.8108H58.9869L59.3369 50.9608L57.0369 46.1108H56.4869V45.9108H58.8369V46.1108H58.1369L59.8369 49.7108L61.1869 46.4608L60.1869 46.1108V45.9108H62.1869V46.1108H61.6369ZM64.085 46.8608L65.335 45.8108C66.775 45.9108 67.685 46.8108 67.685 48.3108C67.685 49.8608 66.735 50.8108 65.385 50.8108C64.585 50.8108 64.085 50.3608 64.085 50.3608V52.5108H64.885V52.7108H62.435V52.5108H63.085V46.1108H62.435V45.9108H64.085V46.8608ZM64.085 47.2608V49.9108C64.085 49.9108 64.485 50.5108 65.185 50.5108C66.035 50.5108 66.585 49.9608 66.585 48.4108C66.585 46.9708 65.935 46.3108 65.335 46.2108L64.085 47.2608ZM68.5873 50.7108V50.5108H69.2373V46.1108H68.5873V45.9108H70.8673V46.1108H70.2373V48.1108H72.5373V46.1108H71.8873V45.9108H74.1873V46.1108H73.5373V50.5108H74.1873V50.7108H71.8873V50.5108H72.5373V48.3608H70.2373V50.5108H70.8873V50.7108H68.5873ZM79.5338 50.7108V50.5108H80.1838V46.1108H79.5338V45.9108H81.8338V46.1108H81.1938V50.5108H81.8338V50.7108H79.5338ZM74.9838 50.7108V50.5108H75.6338V46.1108H74.9838V45.9108H77.2838V46.1108H76.6338V47.7108H77.2838C78.7838 47.7108 79.4338 48.3608 79.4338 49.2108C79.4338 50.0608 78.7838 50.7108 77.2838 50.7108H74.9838ZM76.6338 47.9608V50.4608H77.1838C77.8838 50.4608 78.3338 50.0108 78.3338 49.2108C78.3338 48.4108 77.8838 47.9608 77.1838 47.9608H76.6338ZM82.6303 50.7108V50.5108H83.2803V46.1108H82.6303V45.9108H84.9303V46.1108H84.2803V49.9108L86.6303 46.1608V46.1108H85.9803V45.9108H88.2803V46.1108H87.6303V50.5108H88.2803V50.7108H85.9803V50.5108H86.6303V46.7108L84.2803 50.4608V50.5108H84.9303V50.7108H82.6303ZM85.4803 45.1608C84.3803 45.1608 83.7803 44.5608 83.7803 43.9608H84.8803V44.8108C84.8803 44.8108 85.0803 44.9108 85.4803 44.9108C85.8803 44.9108 86.0803 44.8108 86.0803 44.8108V43.9608H87.1803C87.1803 44.5608 86.5803 45.1608 85.4803 45.1608ZM91.4291 50.7108V50.5108H92.0791V46.1108H91.4291V45.9108H93.7091V46.1108H93.0791V48.1108H95.3791V46.1108H94.7291V45.9108H97.0291V46.1108H96.3791V50.5108H97.0291V50.7108H94.7291V50.5108H95.3791V48.3608H93.0791V50.5108H93.7291V50.7108H91.4291ZM101.226 50.7108V49.9608L100.076 50.8108C98.5256 50.7608 97.9256 50.1608 97.9256 49.4108C97.9256 48.6108 98.4756 48.0608 99.9056 48.0608H101.226V47.5608C101.226 46.6108 100.776 46.1608 100.026 46.1608H99.6256L98.9256 47.4608H98.4756V45.9108H100.026C101.626 45.9108 102.226 46.5108 102.226 47.5108V50.5108H102.876V50.7108H101.226ZM101.226 49.6608V48.3108H100.246C99.4056 48.3108 99.0256 48.7108 99.0256 49.3608C99.0256 50.0108 99.3756 50.3608 100.126 50.4108L101.226 49.6608ZM103.626 50.7108V50.5108H104.276V46.1108H103.626V45.9108H106.126C107.726 45.9108 108.226 46.4108 108.226 47.0608C108.226 47.9608 107.076 48.1108 107.076 48.1108V48.1608C107.076 48.1608 108.626 48.2608 108.626 49.4108C108.626 50.1608 108.076 50.7108 106.376 50.7108H103.626ZM107.526 49.3608C107.526 48.7108 107.126 48.3108 106.276 48.3108H105.276V50.4608H106.276C107.126 50.4608 107.526 50.0608 107.526 49.3608ZM107.126 47.1108C107.126 46.4608 106.826 46.1608 105.976 46.1608H105.276V48.0608H105.976C106.826 48.0608 107.126 47.7608 107.126 47.1108ZM109.378 50.7108V50.5108H110.028V46.1108H109.378V45.9108H111.678V46.1108H111.028V49.9108L113.378 46.1608V46.1108H112.728V45.9108H115.028V46.1108H114.378V50.5108H115.028V50.7108H112.728V50.5108H113.378V46.7108L111.028 50.4608V50.5108H111.678V50.7108H109.378ZM115.824 50.7108V50.5108H116.474V46.1108H115.824V45.9108H120.074V47.6108H119.874L119.074 46.1608H117.474V50.5108H118.274V50.7108H115.824ZM124.175 50.7108V49.9608L123.025 50.8108C121.475 50.7608 120.875 50.1608 120.875 49.4108C120.875 48.6108 121.425 48.0608 122.855 48.0608H124.175V47.5608C124.175 46.6108 123.725 46.1608 122.975 46.1608H122.575L121.875 47.4608H121.425V45.9108H122.975C124.575 45.9108 125.175 46.5108 125.175 47.5108V50.5108H125.825V50.7108H124.175ZM124.175 49.6608V48.3108H123.195C122.355 48.3108 121.975 48.7108 121.975 49.3608C121.975 50.0108 122.325 50.3608 123.075 50.4108L124.175 49.6608ZM127.676 50.7108V50.5108H128.426V46.1608H127.526L126.826 47.6108H126.626V45.9108H131.226V47.6108H131.026L130.326 46.1608H129.426V50.5108H130.176V50.7108H127.676ZM133.224 48.3108C133.224 49.8108 133.974 50.5608 134.774 50.5608C135.574 50.5608 136.324 49.8108 136.324 48.3108C136.324 46.8108 135.574 46.0608 134.774 46.0608C133.974 46.0608 133.224 46.8108 133.224 48.3108ZM137.424 48.3108C137.424 49.7108 136.324 50.8108 134.774 50.8108C133.224 50.8108 132.124 49.7108 132.124 48.3108C132.124 46.9108 133.224 45.8108 134.774 45.8108C136.324 45.8108 137.424 46.9108 137.424 48.3108ZM139.925 46.8608L141.175 45.8108C142.615 45.9108 143.525 46.8108 143.525 48.3108C143.525 49.8608 142.575 50.8108 141.225 50.8108C140.425 50.8108 139.925 50.3608 139.925 50.3608V52.5108H140.725V52.7108H138.275V52.5108H138.925V46.1108H138.275V45.9108H139.925V46.8608ZM139.925 47.2608V49.9108C139.925 49.9108 140.325 50.5108 141.025 50.5108C141.875 50.5108 142.425 49.9608 142.425 48.4108C142.425 46.9708 141.775 46.3108 141.175 46.2108L139.925 47.2608ZM42.9311 60.7108H41.0811C38.7811 60.7108 37.2811 59.2108 37.2811 57.2108C37.2811 55.2108 38.7811 53.7108 41.0811 53.7108H42.9311V55.8108H42.7111L41.9311 53.9608H41.0811C39.5311 53.9608 38.4811 55.0108 38.4811 57.2108C38.4811 59.4108 39.5311 60.4608 41.0811 60.4608H41.9311L42.7111 58.5108H42.9311V60.7108ZM47.6319 60.7108V59.9608L46.4819 60.8108C44.9319 60.7608 44.3319 60.1608 44.3319 59.4108C44.3319 58.6108 44.8819 58.0608 46.3119 58.0608H47.6319V57.5608C47.6319 56.6108 47.1819 56.1608 46.4319 56.1608H46.0319L45.3319 57.4608H44.8819V55.9108H46.4319C48.0319 55.9108 48.6319 56.5108 48.6319 57.5108V60.5108H49.2819V60.7108H47.6319ZM47.6319 59.6608V58.3108H46.6519C45.8119 58.3108 45.4319 58.7108 45.4319 59.3608C45.4319 60.0108 45.7819 60.3608 46.5319 60.4108L47.6319 59.6608ZM50.0326 56.1108V55.9108H51.7326L53.4826 59.5108H53.5326L55.1326 55.9108H56.7826V56.1108H56.1326V60.5108H56.7826V60.7108H54.5326V60.5108H55.1326V56.6608H55.0826L53.2326 60.8108H53.0326L51.0326 56.6608H50.9826V60.1108L51.9826 60.5108V60.7108H50.0326V60.5108H50.6826V56.1108H50.0326ZM60.9815 60.7108V59.9608L59.8315 60.8108C58.2815 60.7608 57.6815 60.1608 57.6815 59.4108C57.6815 58.6108 58.2315 58.0608 59.6615 58.0608H60.9815V57.5608C60.9815 56.6108 60.5315 56.1608 59.7815 56.1608H59.3815L58.6815 57.4608H58.2315V55.9108H59.7815C61.3815 55.9108 61.9815 56.5108 61.9815 57.5108V60.5108H62.6315V60.7108H60.9815ZM60.9815 59.6608V58.3108H60.0015C59.1615 58.3108 58.7815 58.7108 58.7815 59.3608C58.7815 60.0108 59.1315 60.3608 59.8815 60.4108L60.9815 59.6608ZM65.0323 56.8608L66.2823 55.8108C67.7223 55.9108 68.6323 56.8108 68.6323 58.3108C68.6323 59.8608 67.6823 60.8108 66.3323 60.8108C65.5323 60.8108 65.0323 60.3608 65.0323 60.3608V62.5108H65.8323V62.7108H63.3823V62.5108H64.0323V56.1108H63.3823V55.9108H65.0323V56.8608ZM65.0323 57.2608V59.9108C65.0323 59.9108 65.4323 60.5108 66.1323 60.5108C66.9823 60.5108 67.5323 59.9608 67.5323 58.4108C67.5323 56.9708 66.8823 56.3108 66.2823 56.2108L65.0323 57.2608ZM73.9346 59.2608H74.2346C74.0346 60.1108 73.3346 60.8108 72.1846 60.8108C70.6346 60.8108 69.5846 59.7608 69.5846 58.3608C69.5846 56.9608 70.6346 55.9108 72.3846 55.9108H74.0346V57.6608H73.5846L72.8846 56.1608H72.6346C71.3346 56.1608 70.6846 56.9108 70.6846 58.3608C70.6846 59.7608 71.3846 60.4608 72.3846 60.4608C73.2346 60.4608 73.7846 59.9108 73.9346 59.2608ZM75.1303 60.7108V60.5108H75.7803V56.1108H75.1303V55.9108H77.4103V56.1108H76.7803V60.5108H77.3903V60.7108H75.1303ZM78.2803 60.7108V60.5108H78.8303L76.9303 58.1608V58.1108H77.5303C78.0303 56.9108 78.4303 56.3108 78.9803 55.9108H79.7303V56.8608H78.4803C78.4803 56.8608 78.1803 57.2608 77.9303 57.9608L79.9803 60.5108H80.4803V60.7108H78.2803ZM81.9834 58.3108C81.9834 59.8108 82.7334 60.5608 83.5334 60.5608C84.3334 60.5608 85.0834 59.8108 85.0834 58.3108C85.0834 56.8108 84.3334 56.0608 83.5334 56.0608C82.7334 56.0608 81.9834 56.8108 81.9834 58.3108ZM86.1834 58.3108C86.1834 59.7108 85.0834 60.8108 83.5334 60.8108C81.9834 60.8108 80.8834 59.7108 80.8834 58.3108C80.8834 56.9108 81.9834 55.8108 83.5334 55.8108C85.0834 55.8108 86.1834 56.9108 86.1834 58.3108ZM87.0346 60.7108V60.5108H87.6846V56.1108H87.0346V55.9108H89.3346V56.1108H88.6846V59.9108L91.0346 56.1608V56.1108H90.3846V55.9108H92.6846V56.1108H92.0346V60.5108H92.6846V60.7108H90.3846V60.5108H91.0346V56.7108L88.6846 60.4608V60.5108H89.3346V60.7108H87.0346ZM89.8846 55.1608C88.7846 55.1608 88.1846 54.5608 88.1846 53.9608H89.2846V54.8108C89.2846 54.8108 89.4846 54.9108 89.8846 54.9108C90.2846 54.9108 90.4846 54.8108 90.4846 54.8108V53.9608H91.5846C91.5846 54.5608 90.9846 55.1608 89.8846 55.1608ZM96.9834 58.3108C96.9834 59.8108 97.7334 60.5608 98.5334 60.5608C99.3334 60.5608 100.083 59.8108 100.083 58.3108C100.083 56.8108 99.3334 56.0608 98.5334 56.0608C97.7334 56.0608 96.9834 56.8108 96.9834 58.3108ZM101.183 58.3108C101.183 59.7108 100.083 60.8108 98.5334 60.8108C96.9834 60.8108 95.8834 59.7108 95.8834 58.3108C95.8834 56.9108 96.9834 55.8108 98.5334 55.8108C100.083 55.8108 101.183 56.9108 101.183 58.3108ZM106.785 53.6108H106.985C106.985 54.7108 106.535 55.1108 106.535 55.1108L104.085 54.9608C104.085 54.9608 103.235 55.4608 103.235 56.9608C103.235 56.9608 103.735 56.3108 104.935 56.3108C106.335 56.3108 107.235 57.2108 107.235 58.4608C107.235 59.9108 106.335 60.8108 104.735 60.8108C103.185 60.8108 102.135 59.7608 102.135 57.8108C102.135 55.9108 103.135 54.8608 104.385 54.4608C105.485 54.1108 106.335 54.2108 106.785 53.6108ZM104.635 56.6108C103.835 56.6108 103.235 57.3608 103.235 57.3608V57.9108C103.235 59.8108 103.985 60.5608 104.735 60.5608C105.485 60.5608 106.135 59.9108 106.135 58.5608C106.135 57.1608 105.585 56.6108 104.635 56.6108ZM107.689 60.7108V59.6108H108.839C108.839 59.6108 109.339 58.9608 109.339 56.1108H108.689V55.9108H112.839V56.1108H112.189V60.5108H112.839V60.7108H110.539V60.5108H111.189V56.1608H109.639C109.639 58.5108 109.289 59.8108 108.489 60.7108H107.689ZM117.036 60.7108V59.9608L115.886 60.8108C114.336 60.7608 113.736 60.1608 113.736 59.4108C113.736 58.6108 114.286 58.0608 115.716 58.0608H117.036V57.5608C117.036 56.6108 116.586 56.1608 115.836 56.1608H115.436L114.736 57.4608H114.286V55.9108H115.836C117.436 55.9108 118.036 56.5108 118.036 57.5108V60.5108H118.686V60.7108H117.036ZM117.036 59.6608V58.3108H116.056C115.216 58.3108 114.836 58.7108 114.836 59.3608C114.836 60.0108 115.186 60.3608 115.936 60.4108L117.036 59.6608ZM123.837 59.2608H124.137C123.937 60.1108 123.237 60.8108 122.087 60.8108C120.537 60.8108 119.487 59.7608 119.487 58.3608C119.487 56.9608 120.537 55.9108 122.287 55.9108H123.937V57.6608H123.487L122.787 56.1608H122.537C121.237 56.1608 120.587 56.9108 120.587 58.3608C120.587 59.7608 121.287 60.4608 122.287 60.4608C123.137 60.4608 123.687 59.9108 123.837 59.2608ZM126.133 60.7108V60.5108H126.883V56.1608H125.983L125.283 57.6108H125.083V55.9108H129.683V57.6108H129.483L128.783 56.1608H127.883V60.5108H128.633V60.7108H126.133ZM130.531 60.7108V60.5108H131.181V56.1108H130.531V55.9108H132.831V56.1108H132.181V59.9108L134.531 56.1608V56.1108H133.881V55.9108H136.181V56.1108H135.531V60.5108H136.181V60.7108H133.881V60.5108H134.531V56.7108L132.181 60.4608V60.5108H132.831V60.7108H130.531Z" fill="white"/>
<path d="M172.363 0.59156L151.013 71.4084H154.381L173.357 0.59156H172.363Z" fill="white"/>
</svg>
