<svg width="24" height="25" viewBox="0 0 24 25" fill="none" xmlns="http://www.w3.org/2000/svg">
<path d="M13.0002 2.5C17.9707 2.50012 22.0002 6.52951 22.0002 11.5C22.0002 16.4705 17.9707 20.4999 13.0002 20.5C10.8751 20.5 8.92278 19.7621 7.38306 18.5303L3.70728 22.207C3.31679 22.5975 2.68375 22.5974 2.29321 22.207C1.90269 21.8165 1.90269 21.1835 2.29321 20.793L5.96899 17.1162C4.73759 15.5766 4.00024 13.6248 4.00024 11.5C4.00024 6.52944 8.02968 2.5 13.0002 2.5ZM13.0002 4.5C9.13425 4.5 6.00024 7.63401 6.00024 11.5C6.00024 15.366 9.13425 18.5 13.0002 18.5C16.8661 18.4999 20.0002 15.3659 20.0002 11.5C20.0002 7.63408 16.8661 4.50012 13.0002 4.5Z" fill="#222222"/>
</svg>
