<svg width="20" height="20" viewBox="0 0 20 20" fill="none" xmlns="http://www.w3.org/2000/svg">
<path d="M11 0C15.9705 0.000121504 20 4.02951 20 9C20 13.9705 15.9705 17.9999 11 18C8.87482 18 6.92254 17.2621 5.38281 16.0303L1.70703 19.707C1.31654 20.0975 0.683502 20.0974 0.292969 19.707C-0.0975555 19.3165 -0.0975555 18.6835 0.292969 18.293L3.96875 14.6162C2.73735 13.0766 2 11.1248 2 9C2 4.02944 6.02944 0 11 0ZM11 2C7.13401 2 4 5.13401 4 9C4 12.866 7.13401 16 11 16C14.8659 15.9999 18 12.8659 18 9C18 5.13408 14.8659 2.00012 11 2Z" fill="#222222"/>
</svg>
