<svg width="26" height="26" viewBox="0 0 26 26" fill="none" xmlns="http://www.w3.org/2000/svg">
<path d="M14.7734 0.893372C20.5374 1.18568 25.1211 5.95134 25.1211 11.7879L25.1064 12.3494C24.8141 18.1133 20.0484 22.697 14.2119 22.6971L13.6504 22.6824C11.2927 22.5629 9.134 21.693 7.4043 20.3094L2.94824 24.7664C2.4749 25.2397 1.70674 25.2397 1.2334 24.7664C0.760128 24.2931 0.760132 23.5249 1.2334 23.0516L5.68945 18.5945C4.30637 16.865 3.43693 14.7066 3.31738 12.3494L3.30273 11.7879C3.30273 5.76304 8.18707 0.878818 14.2119 0.878723L14.7734 0.893372ZM14.2119 3.30255C9.52594 3.30265 5.72656 7.10191 5.72656 11.7879C5.72663 16.4738 9.52599 20.2722 14.2119 20.2723C18.8979 20.2722 22.6962 16.4739 22.6963 11.7879C22.6963 7.10188 18.8979 3.3026 14.2119 3.30255Z" fill="white"/>
</svg>
