<svg width="20" height="20" viewBox="0 0 20 20" fill="none" xmlns="http://www.w3.org/2000/svg">
<path d="M11 0C15.9704 0.000121505 20 4.02952 20 9.00003C20 13.9705 15.9704 17.9999 11 18.0001C8.87479 18.0001 6.9225 17.2621 5.38277 16.0303L1.70698 19.7071C1.31649 20.0976 0.683443 20.0975 0.292909 19.7071C-0.0976169 19.3166 -0.0976169 18.6835 0.292909 18.293L3.9687 14.6163C2.7373 13.0767 1.99995 11.1248 1.99995 9.00003C1.99995 4.02945 6.02939 0 11 0ZM11 2.00001C7.13397 2.00001 3.99995 5.13402 3.99995 9.00003C3.99995 12.866 7.13397 16 11 16C14.8659 15.9999 18 12.866 18 9.00003C18 5.1341 14.8659 2.00013 11 2.00001Z" fill="white"/>
</svg>
