<svg width="24" height="24" viewBox="0 0 24 24" fill="none" xmlns="http://www.w3.org/2000/svg">
<g clip-path="url(#clip0_352_43319)">
<path d="M11.25 2.9999C11.4489 2.9999 11.6397 3.07892 11.7803 3.21957C11.921 3.36023 12 3.55099 12 3.7499C12 3.94882 11.921 4.13958 11.7803 4.28023C11.6397 4.42089 11.4489 4.4999 11.25 4.4999H6.75C6.15326 4.4999 5.58097 4.73696 5.15901 5.15891C4.73705 5.58087 4.5 6.15317 4.5 6.7499V17.2499C4.5 17.8466 4.73705 18.4189 5.15901 18.8409C5.58097 19.2628 6.15326 19.4999 6.75 19.4999H17.25C17.8467 19.4999 18.419 19.2628 18.841 18.8409C19.2629 18.4189 19.5 17.8466 19.5 17.2499V14.2499C19.5 14.051 19.579 13.8602 19.7197 13.7196C19.8603 13.5789 20.0511 13.4999 20.25 13.4999C20.4489 13.4999 20.6397 13.5789 20.7803 13.7196C20.921 13.8602 21 14.051 21 14.2499V17.2499C21 18.2445 20.6049 19.1983 19.9016 19.9016C19.1984 20.6048 18.2446 20.9999 17.25 20.9999H6.75C5.75544 20.9999 4.80161 20.6048 4.09835 19.9016C3.39509 19.1983 3 18.2445 3 17.2499V6.7499C3 5.75534 3.39509 4.80151 4.09835 4.09825C4.80161 3.39499 5.75544 2.9999 6.75 2.9999H11.25ZM16.17 1.5749C16.2963 1.51322 16.4373 1.48824 16.5771 1.50283C16.7168 1.51742 16.8497 1.57098 16.9605 1.6574L23.7105 6.9074C23.8008 6.97751 23.8739 7.06734 23.9242 7.17003C23.9745 7.27273 24.0007 7.38556 24.0007 7.4999C24.0007 7.61425 23.9745 7.72708 23.9242 7.82977C23.8739 7.93246 23.8008 8.0223 23.7105 8.0924L16.9605 13.3424C16.8496 13.4286 16.7168 13.482 16.5771 13.4965C16.4374 13.5109 16.2964 13.4858 16.1703 13.4241C16.0441 13.3623 15.9379 13.2664 15.8635 13.1472C15.7892 13.028 15.7499 12.8904 15.75 12.7499V10.5374C12.402 10.8824 10.314 13.4969 9.156 15.6359L8.9205 16.0859C8.84483 16.2369 8.72041 16.3579 8.56739 16.4294C8.41437 16.5009 8.24171 16.5186 8.07736 16.4797C7.91301 16.4408 7.76659 16.3476 7.66181 16.2152C7.55702 16.0827 7.50001 15.9188 7.5 15.7499C7.5 12.6359 8.277 9.8384 9.8055 7.7999C11.2125 5.9249 13.2345 4.7294 15.75 4.5314V2.2499C15.7497 2.10934 15.7889 1.97152 15.8632 1.85218C15.9375 1.73283 16.0438 1.63675 16.17 1.5749Z" fill="#303EC9"/>
</g>
<defs>
<clipPath id="clip0_352_43319">
<rect width="24" height="24" fill="white"/>
</clipPath>
</defs>
</svg>
