<svg width="24" height="20" viewBox="0 0 24 20" fill="none" xmlns="http://www.w3.org/2000/svg">
<path d="M0.630534 9.12309C0.685649 9.09553 0.74079 9.06934 0.794528 9.04454C1.72874 8.61189 2.67535 8.20678 3.62058 7.80168C3.67156 7.80168 3.75697 7.74243 3.80519 7.72313C3.87822 7.69144 3.95126 7.66114 4.02429 7.62945C4.16484 7.56882 4.30539 7.50956 4.44455 7.44894C4.72564 7.32906 5.00534 7.2092 5.28642 7.08933C5.84723 6.84957 6.40802 6.60982 6.96882 6.36869C8.09042 5.88919 9.21343 5.40828 10.335 4.92877C11.4566 4.44927 12.5796 3.96839 13.7012 3.48888C14.8228 3.00938 15.9458 2.5285 17.0674 2.049C18.189 1.56949 19.312 1.08862 20.4336 0.609111C20.683 0.501635 20.953 0.341796 21.2203 0.294948C21.4449 0.254989 21.664 0.177839 21.89 0.135125C22.3185 0.0538294 22.7911 0.0207547 23.2017 0.198502C23.3437 0.260507 23.4746 0.347297 23.5834 0.45615C24.1043 0.971481 24.0312 1.81752 23.921 2.54229C23.1535 7.59363 22.386 12.6464 21.6172 17.6977C21.5124 18.3908 21.3691 19.1514 20.8221 19.5895C20.3591 19.9602 19.7005 20.0015 19.1287 19.8444C18.5569 19.686 18.0526 19.3539 17.5579 19.0273C15.5062 17.6687 13.4532 16.3101 11.4015 14.9515C10.9137 14.6291 10.3709 14.2075 10.3764 13.6219C10.3791 13.2691 10.5899 12.955 10.8049 12.6753C12.5879 10.3494 15.1604 8.75105 17.0743 6.53265C17.3443 6.21987 17.5565 5.65495 17.1859 5.47444C16.9654 5.36697 16.7119 5.513 16.5107 5.65216C13.9809 7.40897 11.4525 9.16716 8.92269 10.924C8.09734 11.4972 7.23202 12.0869 6.23719 12.2274C5.34707 12.3542 4.45145 12.1062 3.59027 11.8527C2.86826 11.6405 2.1476 11.4228 1.42972 11.1982C1.04804 11.0797 0.653962 10.9515 0.359093 10.6828C0.0642253 10.4141 -0.105232 9.96222 0.0725155 9.60397C0.184124 9.37938 0.400457 9.23746 0.627809 9.12171L0.630534 9.12309Z" fill="white"/>
</svg>
