<svg width="36" height="36" viewBox="0 0 36 36" fill="none" xmlns="http://www.w3.org/2000/svg">
<path d="M32.256 27.5717H28.833C27.5385 27.5717 27.1485 26.5232 24.828 24.2012C22.8 22.2467 21.9435 22.0037 21.4305 22.0037C20.721 22.0037 20.5275 22.1987 20.5275 23.1752V26.2532C20.5275 27.0857 20.2575 27.5732 18.0825 27.5732C15.9724 27.4314 13.9262 26.7904 12.1125 25.7029C10.2987 24.6154 8.76919 23.1126 7.65 21.3182C4.99352 18.0101 3.14461 14.1284 2.25 9.98116C2.25 9.46816 2.445 9.00316 3.423 9.00316H6.843C7.722 9.00316 8.0385 9.39466 8.3835 10.2992C10.044 15.1862 12.8775 19.4372 14.028 19.4372C14.469 19.4372 14.661 19.2422 14.661 18.1427V13.1087C14.5155 10.8122 13.296 10.6187 13.296 9.78766C13.3114 9.56843 13.4117 9.36384 13.5756 9.21735C13.7394 9.07087 13.9539 8.99403 14.1735 9.00316H19.5495C20.2845 9.00316 20.5275 9.36916 20.5275 10.2482V17.0432C20.5275 17.7767 20.8425 18.0197 21.0645 18.0197C21.5055 18.0197 21.8445 17.7767 22.653 16.9697C24.3853 14.8557 25.8011 12.501 26.856 9.97966C26.9635 9.67661 27.1673 9.41715 27.4364 9.24105C27.7054 9.06494 28.0248 8.98191 28.3455 9.00466H31.767C32.793 9.00466 33.0105 9.51766 32.793 10.2497C31.5482 13.0371 30.0084 15.6832 28.2 18.1427C27.831 18.7052 27.684 18.9977 28.2 19.6577C28.539 20.1707 29.739 21.1727 30.5445 22.1252C31.7175 23.2952 32.691 24.6482 33.4275 26.1302C33.7215 27.0842 33.2325 27.5717 32.256 27.5717Z" fill="white"/>
</svg>
