<svg width="24" height="24" viewBox="0 0 24 24" fill="none" xmlns="http://www.w3.org/2000/svg">
<g clip-path="url(#clip0_292_5869)">
<path fill-rule="evenodd" clip-rule="evenodd" d="M8.196 3.156C6.32938 3.96203 4.7645 5.3362 3.724 7.083H6.7195C6.9545 6.042 7.2645 5.085 7.6375 4.2445C7.80235 3.87112 7.98884 3.50767 8.196 3.156ZM2.375 12C2.375 11.255 2.46 10.5295 2.62 9.833H6.293C6.22819 10.5535 6.19599 11.2766 6.1965 12C6.1965 12.738 6.229 13.4625 6.293 14.166H2.6195C2.45646 13.4556 2.37443 12.7289 2.375 12ZM3.7235 16.916C4.76397 18.6632 6.32905 20.0378 8.196 20.844C7.98884 20.4923 7.80235 20.1289 7.6375 19.7555C7.264 18.915 6.9545 17.9575 6.7195 16.916H3.7235ZM9.293 16.916C9.45432 17.5398 9.66481 18.1499 9.9225 18.7405C10.292 19.5725 10.6995 20.168 11.0895 20.539C11.4725 20.904 11.778 21 11.9995 21C12.221 21 12.527 20.904 12.9105 20.539C13.3 20.168 13.708 19.5725 14.0775 18.7405C14.316 18.203 14.5285 17.5905 14.707 16.916H9.293ZM17.2805 16.916C17.0455 17.9575 16.7355 18.915 16.362 19.7555C16.1971 20.1289 16.0107 20.4923 15.8035 20.844C17.6706 20.0379 19.2359 18.6633 20.2765 16.916H17.2805ZM21.3805 14.166H17.707C17.7718 13.4458 17.804 12.7231 17.8035 12C17.8035 11.2615 17.7705 10.537 17.707 9.833H21.38C21.54 10.5295 21.625 11.255 21.625 12C21.625 12.745 21.54 13.47 21.38 14.166M15.195 14.166H8.804C8.73175 13.4463 8.69587 12.7233 8.6965 12C8.6965 11.25 8.734 10.525 8.8045 9.833H15.195C15.265 10.525 15.303 11.2505 15.303 12C15.303 12.7495 15.2655 13.474 15.195 14.166ZM17.28 7.083H20.2755C19.2349 5.33612 17.6698 3.96194 15.803 3.156C16.006 3.498 16.192 3.8635 16.3615 4.2445C16.735 5.0845 17.0445 6.042 17.2795 7.083M9.9215 5.2595C9.66386 5.84976 9.45337 6.4595 9.292 7.083H14.7055C14.5443 6.45952 14.334 5.84978 14.0765 5.2595C13.7065 4.4275 13.299 3.832 12.9095 3.461C12.527 3.096 12.2215 3 12 3C11.7785 3 11.4725 3.096 11.0895 3.461C10.6995 3.832 10.292 4.4275 9.9225 5.2595M12 0.375C5.58 0.375 0.375 5.58 0.375 12C0.375 18.42 5.58 23.625 12 23.625C18.42 23.625 23.625 18.42 23.625 12C23.625 5.58 18.42 0.375 12 0.375Z" fill="#303EC9"/>
</g>
<defs>
<clipPath id="clip0_292_5869">
<rect width="24" height="24" fill="white"/>
</clipPath>
</defs>
</svg>
